# xmcd
#
# Track frame offsets: 
#        150
#        6885
#        17030
#        29027
#        59180
#        72362
#        82825
#        93590
#        103942
#        114257
#        133940
#        156630
#        170737
#        184482
#
# Disc length: 2679 seconds
#
# Revision: 0
# Processed by: cddbd v1.5.2PL0 Copyright (c) Steve Scherf et al.
# Submitted via: ExactAudioCopy v1.0b3
#
DISCID=d00a750e
DTITLE=Beth Carvalho - Ao Vivo No Teatro Alberto Maranhão
DYEAR=1978
DGENRE=Latin-Br-Samba
TTITLE0=Maior É Deus
TTITLE1=1,800 Colinas
TTITLE2=Pandeiro E Viola
TTITLE3=Andança
TTITLE4=Folhas Secas
TTITLE5=Meu Caminho
TTITLE6=Se Você Me Ouvisse
TTITLE7=Miragen
TTITLE8=As Rosas Não Falam
TTITLE9=Goiabada-Cascão
TTITLE10=Visual
TTITLE11=Olho Por Nlho
TTITLE12=Saco De Feijão
TTITLE13=Agoniza Mas Não Morre
EXTD=
EXTT0=
EXTT1=
EXTT2=
EXTT3=
EXTT4=
EXTT5=
EXTT6=
EXTT7=
EXTT8=
EXTT9=
EXTT10=
EXTT11=
EXTT12=
EXTT13=
PLAYORDER=
